<?xml version="1.0" encoding="UTF-8"?> <svg xmlns="http://www.w3.org/2000/svg" width="88" height="88" viewBox="0 0 88 88" fill="none"><g clip-path="url(#clip0_1155_3200)"><path d="M44.4949 60.9068C44.1809 61.0411 43.8293 61.0736 43.4908 60.9929C43.0455 60.8861 42.6661 60.5958 42.4488 60.1935C41.6593 58.7345 39.9079 58.1291 38.3753 58.7844C36.8427 59.4397 36.0711 61.1239 36.5805 62.7026C36.7212 63.1377 36.669 63.6126 36.4385 64.0083C36.2074 64.4043 35.8196 64.6776 35.3701 64.7725C32.0902 65.4372 28.7735 65.4686 25.5114 64.867C25.0619 64.7842 24.6687 64.5135 24.4303 64.1219C24.1926 63.7317 24.1322 63.2588 24.2639 62.82C24.7339 61.2631 23.9049 59.5699 22.3751 58.9637C20.8259 58.3419 19.0926 58.9771 18.3417 60.4441C18.1332 60.8492 17.7583 61.1427 17.3213 61.2629C16.8803 61.3798 16.4114 61.3036 16.0295 61.0536C13.2539 59.233 10.8802 56.9246 8.97445 54.1891C8.7126 53.8143 8.62321 53.3436 8.72925 52.8987C8.83457 52.454 9.1253 52.0735 9.52734 51.8555C10.963 51.0794 11.582 49.2898 10.9375 47.7824C10.2825 46.2506 8.59798 45.4782 7.02056 45.9887C6.58447 46.1291 6.10915 46.0779 5.71358 45.8457C5.31863 45.6149 5.04071 45.2266 4.95006 44.7769C4.2889 41.5092 4.25159 38.1967 4.83898 34.9314C4.92069 34.4814 5.18906 34.0866 5.57833 33.8467C5.97317 33.6079 6.44126 33.5444 6.8795 33.6746C8.4362 34.1361 10.1368 33.3066 10.7463 31.7805C11.3755 30.2306 10.7443 28.5007 9.28024 27.7486C8.87547 27.5408 8.57743 27.1713 8.46017 26.7313C8.34354 26.2928 8.41795 25.8238 8.66579 25.4428C10.4569 22.6841 12.7681 20.3091 15.5332 18.3806C15.9088 18.1226 16.3779 18.0296 16.8239 18.1361C17.2693 18.2411 17.6493 18.5329 17.8666 18.9352C18.6561 20.3942 20.4068 20.9999 21.9394 20.3446C23.472 19.6893 24.2444 18.0048 23.735 16.426C23.5942 15.991 23.6458 15.5146 23.8776 15.1201C24.1081 14.7244 24.4988 14.4481 24.9461 14.3559C28.2507 13.6892 31.5645 13.659 34.7965 14.27C35.2431 14.354 35.6336 14.6242 35.87 15.0115C36.1071 15.4003 36.1684 15.8711 36.039 16.3072C35.5712 17.8854 36.3858 19.5369 37.9341 20.1505C39.4643 20.7617 41.2393 20.1121 41.9819 18.6657C42.1898 18.2592 42.562 17.9634 43.0053 17.8439C43.4477 17.7282 43.9185 17.807 44.3003 18.0587C47.0668 19.89 49.4359 22.2055 51.3416 24.9411C51.6041 25.3173 51.6928 25.7865 51.5868 26.2315C51.4814 26.6779 51.19 27.0569 50.7873 27.2752C49.3284 28.0629 48.7223 29.8147 49.3773 31.3466C50.0218 32.8539 51.744 33.6425 53.2969 33.1408C53.7323 33.0007 54.2082 33.0534 54.6025 33.2844C54.9974 33.5152 55.276 33.905 55.366 34.3532C56.0272 37.621 56.0567 40.9333 55.454 44.1967C55.3709 44.6455 55.1013 45.0374 54.7129 45.2752C54.3205 45.5079 53.8528 45.5764 53.4153 45.4458C51.8377 44.9813 50.182 45.79 49.563 47.3337C48.9412 48.8651 49.5925 50.6341 51.0428 51.37C51.4511 51.578 51.7512 51.9483 51.8691 52.3898C51.9876 52.8326 51.9116 53.304 51.6609 53.6862C49.8422 56.4602 47.528 58.8363 44.7815 60.7484C44.6905 60.8112 44.5945 60.8643 44.4949 60.9068ZM37.111 55.8275C39.5979 54.7641 42.3741 55.3617 44.1816 57.1847C45.6531 56.009 46.9601 54.6663 48.0889 53.1744C46.2464 51.4074 45.5757 48.6048 46.5816 46.1305C47.5834 43.6307 49.961 42.0898 52.5185 42.0961C52.7343 40.2363 52.7172 38.3651 52.468 36.5043C49.9187 36.5491 47.4636 35.0509 46.4204 32.6109C45.3567 30.1232 45.9556 27.3482 47.7786 25.5406C46.6034 24.0723 45.2627 22.762 43.7722 21.6266C42.0048 23.4582 39.2067 24.1252 36.7443 23.1372C34.2283 22.1415 32.6798 19.7621 32.6885 17.1984C30.8471 16.9816 28.9797 16.9996 27.1074 17.252C27.1766 19.8182 25.6907 22.2381 23.2037 23.3015C20.7168 24.3649 17.9413 23.767 16.1338 21.944C14.6579 23.1233 13.3547 24.4609 12.2393 25.942C14.0988 27.7069 14.7491 30.472 13.7276 32.9837C12.7431 35.442 10.3273 36.9993 7.78255 37.0148C7.57438 38.8765 7.59548 40.7511 7.84515 42.6151C10.4114 42.546 12.8307 44.0305 13.8944 46.5181C14.937 48.9567 14.3247 51.7682 12.531 53.5803C13.7049 55.0457 15.046 56.3508 16.5389 57.48C18.2985 55.6262 21.058 54.9706 23.5649 55.977C26.0433 56.9564 27.6047 59.3781 27.6093 61.931C29.4677 62.1456 31.3421 62.128 33.208 61.8767C33.1388 59.3105 34.624 56.8908 37.111 55.8275Z" fill="url(#paint0_linear_1155_3200)"></path><path d="M33.9446 48.4322C29.0559 50.5225 23.3774 48.2456 21.2871 43.3569C19.1968 38.4682 21.4738 32.7897 26.3625 30.6994C31.2512 28.6091 36.9289 30.8864 39.0192 35.7751C41.1095 40.6638 38.8333 46.3419 33.9446 48.4322ZM27.6268 33.6563C24.3681 35.0497 22.8507 38.8339 24.244 42.0926C25.6374 45.3512 29.4216 46.8686 32.6803 45.4753C35.9382 44.0823 37.4556 40.2981 36.0623 37.0394C34.669 33.7807 30.8847 32.2633 27.6268 33.6563Z" fill="url(#paint1_linear_1155_3200)"></path><path d="M53.3976 61.9255H56.0217C56.209 62.5193 56.4473 63.095 56.7378 63.6483L54.881 65.5062C54.4649 65.9223 54.4649 66.5948 54.881 67.0109L57.8902 70.0202C58.3063 70.4362 58.9788 70.4362 59.3949 70.0202L61.2517 68.1633C61.8051 68.4527 62.3818 68.6922 62.9745 68.8784V71.5025C62.9745 72.0899 63.4502 72.5666 64.0386 72.5666H68.295C68.8835 72.5666 69.3591 72.0899 69.3591 71.5025V68.8784C69.9529 68.6911 70.5296 68.4527 71.0819 68.1633L72.9388 70.0202C73.3548 70.4362 74.0274 70.4362 74.4434 70.0202L77.4527 67.0109C77.8688 66.5948 77.8688 65.9223 77.4527 65.5062L75.5958 63.6483C75.8853 63.095 76.1247 62.5193 76.312 61.9255H78.9361C79.5245 61.9255 80.0002 61.4488 80.0002 60.8614V56.605C80.0002 56.0176 79.5245 55.5409 78.9361 55.5409H76.312C76.1247 54.9472 75.8863 54.3715 75.5958 53.8181L77.4527 51.9602C77.8688 51.5442 77.8688 50.8716 77.4527 50.4556L74.4434 47.4463C74.0274 47.0302 73.3548 47.0302 72.9388 47.4463L71.0819 49.3032C70.5296 49.0137 69.9529 48.7754 69.3591 48.5881V45.964C69.3591 45.3766 68.8835 44.8999 68.295 44.8999H64.0386C63.4502 44.8999 62.9745 45.3766 62.9745 45.964V48.5881C62.3808 48.7754 61.804 49.0137 61.2517 49.3032L59.3949 47.4474C58.9788 47.0313 58.3063 47.0313 57.8902 47.4474L54.881 50.4566C54.4649 50.8727 54.4649 51.5452 54.881 51.9613L56.7378 53.8192C56.4473 54.3715 56.209 54.9472 56.0217 55.5409H53.3976C52.8091 55.5409 52.3335 56.0176 52.3335 56.605V60.8614C52.3335 61.4488 52.8091 61.9255 53.3976 61.9255ZM54.4617 57.6691H56.8346C57.3316 57.6691 57.7615 57.3254 57.8721 56.8413C58.085 55.9091 58.4532 55.0227 58.965 54.2087C59.2299 53.7884 59.1682 53.2403 58.8171 52.8892L57.1369 51.2079L58.6415 49.7033L60.3217 51.3835C60.6739 51.7357 61.2219 51.7964 61.6412 51.5314C62.4563 51.0185 63.3416 50.6503 64.2738 50.4386C64.759 50.329 65.1027 49.898 65.1027 49.4011V47.0281H67.2309V49.4011C67.2309 49.898 67.5746 50.329 68.0588 50.4386C68.991 50.6503 69.8763 51.0185 70.6914 51.5314C71.1117 51.7964 71.6587 51.7346 72.0109 51.3835L73.6911 49.7033L75.1957 51.2079L73.5155 52.8892C73.1644 53.2403 73.1026 53.7884 73.3676 54.2087C73.8794 55.0227 74.2476 55.908 74.4604 56.8413C74.5711 57.3254 75.0021 57.6691 75.499 57.6691H77.872V59.7973H75.499C75.0021 59.7973 74.5722 60.141 74.4615 60.6252C74.2487 61.5574 73.8805 62.4438 73.3687 63.2578C73.1037 63.6781 73.1654 64.2261 73.5166 64.5773L75.1968 66.2586L73.6922 67.7632L72.0119 66.083C71.6597 65.7318 71.1117 65.6701 70.6925 65.9351C69.8774 66.448 68.992 66.8162 68.0599 67.0279C67.5746 67.1375 67.2309 67.5685 67.2309 68.0654V70.4384H65.1027V68.0654C65.1027 67.5685 64.759 67.1375 64.2749 67.0279C63.3427 66.8162 62.4574 66.448 61.6423 65.9351C61.2219 65.6701 60.675 65.7318 60.3228 66.083L58.6426 67.7632L57.1379 66.2586L58.8181 64.5773C59.1693 64.2261 59.231 63.6781 58.966 63.2578C58.4542 62.4438 58.086 61.5584 57.8732 60.6252C57.7625 60.141 57.3316 59.7973 56.8346 59.7973H54.4617V57.6691Z" fill="url(#paint2_linear_1155_3200)"></path><path d="M66.1665 64.1462C69.1512 64.1462 71.5795 61.7179 71.5795 58.7331C71.5795 55.7484 69.1512 53.3201 66.1665 53.3201C63.1817 53.3201 60.7534 55.7484 60.7534 58.7331C60.7534 61.7179 63.1817 64.1462 66.1665 64.1462ZM66.1665 55.4853C67.9571 55.4853 69.4143 56.9425 69.4143 58.7331C69.4143 60.5237 67.9571 61.9809 66.1665 61.9809C64.3758 61.9809 62.9186 60.5237 62.9186 58.7331C62.9186 56.9425 64.3758 55.4853 66.1665 55.4853Z" fill="url(#paint3_linear_1155_3200)"></path></g><defs><linearGradient id="paint0_linear_1155_3200" x1="27.3484" y1="65.1759" x2="40.8072" y2="19.0502" gradientUnits="userSpaceOnUse"><stop offset="0.348605" stop-color="white"></stop><stop offset="1" stop-color="#CDE7C4"></stop></linearGradient><linearGradient id="paint1_linear_1155_3200" x1="29.081" y1="49.3428" x2="34.2191" y2="31.7354" gradientUnits="userSpaceOnUse"><stop offset="0.348605" stop-color="white"></stop><stop offset="1" stop-color="#CDE7C4"></stop></linearGradient><linearGradient id="paint2_linear_1155_3200" x1="59.2382" y1="71.0246" x2="75.946" y2="50.6968" gradientUnits="userSpaceOnUse"><stop offset="0.348605" stop-color="#69C04B"></stop><stop offset="1" stop-color="#A2F087"></stop></linearGradient><linearGradient id="paint3_linear_1155_3200" x1="63.4553" y1="63.5428" x2="69.9931" y2="55.5884" gradientUnits="userSpaceOnUse"><stop offset="0.348605" stop-color="#69C04B"></stop><stop offset="1" stop-color="#A2F087"></stop></linearGradient><clipPath id="clip0_1155_3200"><rect width="88" height="88" fill="white"></rect></clipPath></defs></svg> 