<?xml version="1.0" encoding="UTF-8"?> <svg xmlns="http://www.w3.org/2000/svg" width="88" height="88" viewBox="0 0 88 88" fill="none"><rect x="17.2153" y="57.626" width="20.1903" height="21.5363" stroke="url(#paint0_linear_1155_3242)" stroke-width="3.27083" stroke-linejoin="round"></rect><rect x="46.8276" y="8.87964" width="20.1903" height="34.9966" stroke="url(#paint1_linear_1155_3242)" stroke-width="3.27083" stroke-linejoin="round"></rect><path d="M27.3105 21.9565V44.8389" stroke="url(#paint2_linear_1155_3242)" stroke-width="3.27083" stroke-linecap="round" stroke-linejoin="round"></path><path d="M17.2153 37.4358L26.9067 46.8579L36.0596 37.4358" stroke="url(#paint3_linear_1155_3242)" stroke-width="3.27083" stroke-linecap="round" stroke-linejoin="round"></path><path fill-rule="evenodd" clip-rule="evenodd" d="M67.224 63.8932C67.8716 64.5228 68.907 64.5083 69.5366 63.8607C70.1662 63.2131 70.1516 62.1777 69.504 61.5481L59.8127 52.1259C59.5016 51.8235 59.0831 51.6571 58.6493 51.6633C58.2155 51.6695 57.8019 51.8478 57.4996 52.159L48.3466 61.5811C47.7173 62.229 47.7323 63.2644 48.3802 63.8937C49.028 64.523 50.0634 64.508 50.6927 63.8602L56.6334 57.7448L56.6334 78.1999C56.6334 79.1031 57.3656 79.8353 58.2688 79.8353C59.172 79.8353 59.9042 79.1031 59.9042 78.1999L59.9043 56.7768L67.224 63.8932Z" fill="url(#paint4_linear_1155_3242)"></path><defs><linearGradient id="paint0_linear_1155_3242" x1="22.2542" y1="77.962" x2="35.3969" y2="62.9711" gradientUnits="userSpaceOnUse"><stop offset="0.348605" stop-color="#69C04B"></stop><stop offset="1" stop-color="#A2F087"></stop></linearGradient><linearGradient id="paint1_linear_1155_3242" x1="51.8665" y1="41.9257" x2="72.1263" y2="27.7049" gradientUnits="userSpaceOnUse"><stop offset="0.348605" stop-color="white"></stop><stop offset="1" stop-color="#CDE7C4"></stop></linearGradient><linearGradient id="paint2_linear_1155_3242" x1="27.5601" y1="43.5636" x2="29.0537" y2="43.4842" gradientUnits="userSpaceOnUse"><stop offset="0.348605" stop-color="#69C04B"></stop><stop offset="1" stop-color="#A2F087"></stop></linearGradient><linearGradient id="paint3_linear_1155_3242" x1="21.9183" y1="46.3328" x2="25.9965" y2="36.4092" gradientUnits="userSpaceOnUse"><stop offset="0.348605" stop-color="#69C04B"></stop><stop offset="1" stop-color="#A2F087"></stop></linearGradient><linearGradient id="paint4_linear_1155_3242" x1="53.4035" y1="78.2652" x2="70.7266" y2="61.7203" gradientUnits="userSpaceOnUse"><stop offset="0.348605" stop-color="white"></stop><stop offset="1" stop-color="#CDE7C4"></stop></linearGradient></defs></svg> 