<?xml version="1.0" encoding="UTF-8"?> <svg xmlns="http://www.w3.org/2000/svg" width="88" height="88" viewBox="0 0 88 88" fill="none"><path fill-rule="evenodd" clip-rule="evenodd" d="M53.215 58.5H46.215V48H69.215V58.5H61.215C60.3866 58.5 59.715 59.1716 59.715 60V75C59.715 75.8284 60.3866 76.5 61.215 76.5H79.215C80.0434 76.5 80.715 75.8284 80.715 75V60C80.715 59.1716 80.0434 58.5 79.215 58.5H72.215V46.5C72.215 45.6716 71.5434 45 70.715 45H46.215V31H43.215V45H17.715C16.8866 45 16.215 45.6716 16.215 46.5V58.5H9.215C8.38657 58.5 7.715 59.1716 7.715 60V75C7.715 75.8284 8.38657 76.5 9.215 76.5H27.215C28.0434 76.5 28.715 75.8284 28.715 75V60C28.715 59.1716 28.0434 58.5 27.215 58.5H19.215V48H43.215V58.5H35.215C34.3866 58.5 33.715 59.1716 33.715 60V75C33.715 75.8284 34.3866 76.5 35.215 76.5H53.215C54.0434 76.5 54.715 75.8284 54.715 75V60C54.715 59.1716 54.0434 58.5 53.215 58.5ZM10.715 61.5V73.5H25.715V61.5H10.715ZM36.715 61.5V73.5H51.715V61.5H36.715ZM62.715 73.5V61.5H77.715V73.5H62.715Z" fill="url(#paint0_linear_1188_8923)"></path><rect x="26.2148" y="16" width="38" height="15" stroke="url(#paint1_linear_1188_8923)" stroke-width="3" stroke-linejoin="round"></rect><defs><linearGradient id="paint0_linear_1188_8923" x1="26.0763" y1="73.695" x2="48.6849" y2="29.6313" gradientUnits="userSpaceOnUse"><stop offset="0.348605" stop-color="#69C04B"></stop><stop offset="1" stop-color="#A2F087"></stop></linearGradient><linearGradient id="paint1_linear_1188_8923" x1="35.6985" y1="30.164" x2="41.1191" y2="13.4563" gradientUnits="userSpaceOnUse"><stop offset="0.348605" stop-color="white"></stop><stop offset="1" stop-color="#CDE7C4"></stop></linearGradient></defs></svg> 