<?xml version="1.0" encoding="UTF-8"?> <svg xmlns="http://www.w3.org/2000/svg" width="88" height="88" viewBox="0 0 88 88" fill="none"><path d="M62.88 70.1816H18.4112C16.9178 70.1816 15.7036 68.9674 15.7036 67.474V11.9446C15.7036 10.4513 16.9178 9.23706 18.4112 9.23706H62.878C65.1951 9.23706 67.0809 11.1228 67.0809 13.4399V35.6802C67.0809 36.3322 66.5519 36.8612 65.8999 36.8612C65.2479 36.8612 64.7188 36.3322 64.7188 35.6802V13.4399C64.7188 12.4248 63.8931 11.5991 62.878 11.5991H18.4112C18.2218 11.5991 18.0676 11.7533 18.0676 11.9427V67.474C18.0676 67.6634 18.2218 67.8176 18.4112 67.8176H62.878C63.8931 67.8176 64.7188 66.9918 64.7188 65.9767V43.7384C64.7188 43.0864 65.2479 42.5574 65.8999 42.5574C66.5519 42.5574 67.0809 43.0864 67.0809 43.7384V65.9787C67.0828 68.2958 65.1971 70.1816 62.88 70.1816Z" fill="url(#paint0_linear_1155_3255)"></path><path d="M25.5194 70.1816C24.8674 70.1816 24.3384 69.6525 24.3384 69.0005V10.4181C24.3384 9.76608 24.8674 9.23706 25.5194 9.23706C26.1714 9.23706 26.7004 9.76608 26.7004 10.4181V69.0005C26.7004 69.6525 26.1714 70.1816 25.5194 70.1816Z" fill="url(#paint1_linear_1155_3255)"></path><path d="M59.6219 31.7019H31.7987C31.1467 31.7019 30.6177 31.1729 30.6177 30.5209V17.151C30.6177 16.499 31.1467 15.97 31.7987 15.97H59.6219C60.2739 15.97 60.803 16.499 60.803 17.151V30.519C60.803 31.1729 60.2739 31.7019 59.6219 31.7019ZM32.9797 29.3379H58.4409V18.332H32.9797V29.3379Z" fill="url(#paint2_linear_1155_3255)"></path><path d="M53.6044 22.6731H37.8177C37.1657 22.6731 36.6367 22.1441 36.6367 21.4921C36.6367 20.8401 37.1657 20.311 37.8177 20.311H53.6044C54.2564 20.311 54.7854 20.8401 54.7854 21.4921C54.7854 22.1441 54.2564 22.6731 53.6044 22.6731Z" fill="url(#paint3_linear_1155_3255)"></path><path d="M53.6044 27.3603H37.8177C37.1657 27.3603 36.6367 26.8313 36.6367 26.1793C36.6367 25.5273 37.1657 24.9983 37.8177 24.9983H53.6044C54.2564 24.9983 54.7854 25.5273 54.7854 26.1793C54.7854 26.8313 54.2564 27.3603 53.6044 27.3603Z" fill="url(#paint4_linear_1155_3255)"></path><path d="M59.9834 51.1094H31.4379C30.7859 51.1094 30.2568 50.5803 30.2568 49.9283C30.2568 49.2763 30.7859 48.7473 31.4379 48.7473H59.9853C60.6373 48.7473 61.1664 49.2763 61.1664 49.9283C61.1644 50.5803 60.6354 51.1094 59.9834 51.1094Z" fill="url(#paint5_linear_1155_3255)"></path><path d="M59.9834 57.2781H31.4379C30.7859 57.2781 30.2568 56.749 30.2568 56.097C30.2568 55.445 30.7859 54.916 31.4379 54.916H59.9853C60.6373 54.916 61.1664 55.445 61.1664 56.097C61.1664 56.749 60.6354 57.2781 59.9834 57.2781Z" fill="url(#paint6_linear_1155_3255)"></path><path d="M59.9834 63.4485H31.4379C30.7859 63.4485 30.2568 62.9194 30.2568 62.2674C30.2568 61.6154 30.7859 61.0864 31.4379 61.0864H59.9853C60.6373 61.0864 61.1664 61.6154 61.1664 62.2674C61.1644 62.9194 60.6354 63.4485 59.9834 63.4485Z" fill="url(#paint7_linear_1155_3255)"></path><path d="M34.9592 77.8026L31.9569 75.4835L28.9546 77.8026C28.1776 78.4019 27.0513 77.8475 27.0513 76.8676V69.0006C27.0513 68.3486 27.5803 67.8196 28.2323 67.8196C28.8843 67.8196 29.4133 68.3486 29.4133 69.0006V74.4626L31.2346 73.0551C31.6602 72.7272 32.2536 72.7272 32.6792 73.0551L34.5005 74.4626V69.0006C34.5005 68.3486 35.0295 67.8196 35.6815 67.8196C36.3335 67.8196 36.8625 68.3486 36.8625 69.0006V76.8676C36.8625 77.8436 35.7401 78.4019 34.9592 77.8026Z" fill="url(#paint8_linear_1155_3255)"></path><path d="M70.5871 44.9193H61.215C59.8857 44.9193 58.8022 43.8379 58.8022 42.5065V36.9118C58.8022 35.5824 59.8837 34.499 61.215 34.499H70.5871C71.9164 34.499 72.9999 35.5805 72.9999 36.9118V42.5065C72.9999 43.8379 71.9184 44.9193 70.5871 44.9193ZM61.215 36.8611C61.1877 36.8611 61.1643 36.8825 61.1643 36.9118V42.5065C61.1643 42.5339 61.1858 42.5573 61.215 42.5573H70.5871C70.6144 42.5573 70.6378 42.5358 70.6378 42.5065V36.9118C70.6378 36.8845 70.6163 36.8611 70.5871 36.8611H61.215Z" fill="url(#paint9_linear_1155_3255)"></path><defs><linearGradient id="paint0_linear_1155_3255" x1="28.5258" y1="66.7849" x2="66.0279" y2="28.32" gradientUnits="userSpaceOnUse"><stop offset="0.348605" stop-color="#69C04B"></stop><stop offset="1" stop-color="#A2F087"></stop></linearGradient><linearGradient id="paint1_linear_1155_3255" x1="24.9279" y1="66.7849" x2="28.458" y2="66.6184" gradientUnits="userSpaceOnUse"><stop offset="0.348605" stop-color="#69C04B"></stop><stop offset="1" stop-color="#A2F087"></stop></linearGradient><linearGradient id="paint2_linear_1155_3255" x1="38.151" y1="30.8251" x2="45.1611" y2="14.4605" gradientUnits="userSpaceOnUse"><stop offset="0.348605" stop-color="white"></stop><stop offset="1" stop-color="#CDE7C4"></stop></linearGradient><linearGradient id="paint3_linear_1155_3255" x1="41.1661" y1="22.5414" x2="41.4736" y2="19.6664" gradientUnits="userSpaceOnUse"><stop offset="0.348605" stop-color="white"></stop><stop offset="1" stop-color="#CDE7C4"></stop></linearGradient><linearGradient id="paint4_linear_1155_3255" x1="41.1661" y1="27.2287" x2="41.4736" y2="24.3537" gradientUnits="userSpaceOnUse"><stop offset="0.348605" stop-color="white"></stop><stop offset="1" stop-color="#CDE7C4"></stop></linearGradient><linearGradient id="paint5_linear_1155_3255" x1="37.9709" y1="50.9777" x2="38.1528" y2="48.0812" gradientUnits="userSpaceOnUse"><stop offset="0.348605" stop-color="white"></stop><stop offset="1" stop-color="#CDE7C4"></stop></linearGradient><linearGradient id="paint6_linear_1155_3255" x1="37.9709" y1="57.1464" x2="38.1528" y2="54.2499" gradientUnits="userSpaceOnUse"><stop offset="0.348605" stop-color="white"></stop><stop offset="1" stop-color="#CDE7C4"></stop></linearGradient><linearGradient id="paint7_linear_1155_3255" x1="37.9709" y1="63.3168" x2="38.1528" y2="60.4204" gradientUnits="userSpaceOnUse"><stop offset="0.348605" stop-color="white"></stop><stop offset="1" stop-color="#CDE7C4"></stop></linearGradient><linearGradient id="paint8_linear_1155_3255" x1="29.4999" y1="77.4805" x2="35.7235" y2="70.2192" gradientUnits="userSpaceOnUse"><stop offset="0.348605" stop-color="#69C04B"></stop><stop offset="1" stop-color="#A2F087"></stop></linearGradient><linearGradient id="paint9_linear_1155_3255" x1="62.3455" y1="44.3386" x2="68.0194" y2="34.9329" gradientUnits="userSpaceOnUse"><stop offset="0.348605" stop-color="#69C04B"></stop><stop offset="1" stop-color="#A2F087"></stop></linearGradient></defs></svg> 