<?xml version="1.0" encoding="UTF-8"?> <svg xmlns="http://www.w3.org/2000/svg" width="88" height="88" viewBox="0 0 88 88" fill="none"><path fill-rule="evenodd" clip-rule="evenodd" d="M40.4019 28.7923C39.7719 28.7976 39.1456 28.8229 38.5233 28.8667C29.1627 29.7137 21.8283 37.5819 21.8283 47.1631C21.8283 56.7444 29.1628 64.6126 38.5234 65.4595C39.1456 65.5033 39.7719 65.5286 40.4017 65.5339C50.4554 65.4259 58.5721 57.2424 58.5721 47.1631C58.5721 37.0839 50.4555 28.9004 40.4019 28.7923ZM40.4042 67.964C40.488 67.9647 40.5718 67.965 40.6558 67.965C46.7848 67.965 52.5379 66.2175 57.5822 63.7832C58.1865 63.4916 58.44 62.7653 58.1483 62.1609C57.8567 61.5566 57.1304 61.3031 56.526 61.5947C55.7044 61.9913 54.866 62.3672 54.0123 62.7181C58.3004 58.9076 61.0021 53.3509 61.0021 47.1631C61.0021 40.9754 58.3004 35.4186 54.0123 31.6082C58.3905 33.4075 62.3547 35.8619 65.6989 38.3451C68.9386 40.7508 71.5626 43.1583 73.3755 44.9636C74.2813 45.8656 74.9829 46.6156 75.4559 47.1374L75.4792 47.1631C75.4197 47.2289 75.3564 47.2984 75.2895 47.3714C74.8363 47.8663 74.87 48.6349 75.3649 49.0881C75.8597 49.5413 76.6283 49.5075 77.0815 49.0127C77.3867 48.6794 77.6212 48.4146 77.7806 48.2316C77.8603 48.1401 77.9214 48.069 77.9631 48.02L78.0112 47.9632L78.0243 47.9476L78.0281 47.9431L78.0293 47.9416L78.0298 47.9411L78.0299 47.9409L78.03 47.9408C78.03 47.9408 78.0301 47.9407 77.0965 47.1631L78.0301 47.9407C78.4053 47.4902 78.4053 46.836 78.0301 46.3855L77.0965 47.1631C78.0301 46.3855 78.0298 46.3851 78.0294 46.3847L78.0284 46.3835L78.0252 46.3797L78.0144 46.3668L77.9751 46.3203C77.941 46.2802 77.8913 46.222 77.8263 46.1471C77.6964 45.9973 77.5054 45.7802 77.2564 45.5055C76.7586 44.9563 76.0283 44.176 75.0901 43.2417C73.215 41.3745 70.5023 38.8852 67.1476 36.3942C60.4652 31.4321 51.0984 26.3612 40.6558 26.3612C40.5719 26.3612 40.4881 26.3615 40.4044 26.3622C40.3364 26.3615 40.2684 26.3612 40.2002 26.3612C39.568 26.3612 38.9424 26.3894 38.3246 26.4446C28.8229 27.1214 20.3451 31.8044 14.1639 36.3942C10.8092 38.8853 8.09647 41.3745 6.22137 43.2417C5.28317 44.176 4.55293 44.9563 4.05509 45.5055C3.80613 45.7802 3.61516 45.9973 3.48522 46.1471C3.42025 46.222 3.37053 46.2802 3.33645 46.3203L3.29708 46.3668L3.28628 46.3797L3.28311 46.3835L3.28209 46.3847C3.28173 46.3851 3.28144 46.3855 4.215 47.1631L3.28144 46.3855C2.90619 46.836 2.90619 47.4902 3.28144 47.9407L4.215 47.1631C3.28144 47.9407 3.28173 47.9411 3.28209 47.9415L3.28311 47.9427L3.28628 47.9465L3.29708 47.9594L3.33645 48.0059C3.37053 48.0461 3.42025 48.1042 3.48522 48.1791C3.61516 48.3289 3.80613 48.546 4.05509 48.8207C4.55294 49.37 5.28317 50.1502 6.22137 51.0845C8.09647 52.9517 10.8092 55.441 14.1639 57.932C20.3451 62.5219 28.823 67.2049 38.3247 67.8816C38.9425 67.9368 39.5681 67.965 40.2002 67.965C40.2683 67.965 40.3363 67.9647 40.4042 67.964ZM25.5963 61.9767C21.7701 58.2044 19.3983 52.9607 19.3983 47.1631C19.3983 41.3655 21.7701 36.1219 25.5963 32.3495C21.8905 34.0526 18.5176 36.188 15.6126 38.3451C12.3729 40.7508 9.74892 43.1583 7.93602 44.9636C7.03022 45.8656 6.32861 46.6156 5.8556 47.1374L5.83234 47.1631L5.8556 47.1888C6.32861 47.7107 7.03022 48.4606 7.93602 49.3626C9.74892 51.1679 12.3729 53.5754 15.6126 55.9811C18.5176 58.1382 21.8905 60.2736 25.5963 61.9767Z" fill="url(#paint0_linear_1138_1349)"></path><circle cx="40.0044" cy="47.1632" r="11.3877" stroke="url(#paint1_linear_1138_1349)" stroke-width="2.43"></circle><path d="M40.6558 13V21.1992" stroke="url(#paint2_linear_1138_1349)" stroke-width="2.43" stroke-linecap="round"></path><path d="M61.8423 15.733L57.054 22.3888" stroke="url(#paint3_linear_1138_1349)" stroke-width="2.43" stroke-linecap="round"></path><path d="M24.4907 22.3888L19.7025 15.733" stroke="url(#paint4_linear_1138_1349)" stroke-width="2.43" stroke-linecap="round"></path><path fill-rule="evenodd" clip-rule="evenodd" d="M62.1092 62.3909C62.1092 57.0242 66.4597 52.6737 71.8264 52.6737C74.504 52.6737 76.9268 53.7551 78.6856 55.5078C79.6838 56.5026 80.4661 57.7119 80.9578 59.0593L79.8452 58.2219C79.3091 57.8183 78.5473 57.9259 78.1438 58.462C77.7403 58.9981 77.8478 59.7599 78.3839 60.1634L82.028 62.9061C82.3172 63.1238 82.6883 63.2012 83.0404 63.1173C83.3924 63.0333 83.6887 62.7968 83.8486 62.4722L85.8676 58.3726C86.1641 57.7706 85.9164 57.0422 85.3144 56.7458C84.7125 56.4493 83.9841 56.697 83.6877 57.299L83.2365 58.215C82.6205 56.5323 81.6436 55.0251 80.4009 53.7866C78.2052 51.5985 75.1729 50.2437 71.8264 50.2437C65.1177 50.2437 59.6792 55.6822 59.6792 62.3909C59.6792 69.0996 65.1177 74.5381 71.8264 74.5381C76.5302 74.5381 80.6075 71.8642 82.6248 67.9591C82.9328 67.363 82.6992 66.63 82.103 66.322C81.5068 66.014 80.7739 66.2477 80.4659 66.8438C78.8493 69.9732 75.5861 72.1081 71.8264 72.1081C66.4597 72.1081 62.1092 67.7576 62.1092 62.3909Z" fill="url(#paint5_linear_1138_1349)"></path><path d="M70.915 56.9248V63.7574L75.4701 65.5795" stroke="url(#paint6_linear_1138_1349)" stroke-width="2.43" stroke-linecap="round" stroke-linejoin="round"></path><defs><linearGradient id="paint0_linear_1138_1349" x1="14.2561" y1="61.5353" x2="49.2112" y2="-7.26957" gradientUnits="userSpaceOnUse"><stop stop-color="#15421A"></stop><stop offset="1" stop-color="#6AC04C"></stop></linearGradient><linearGradient id="paint1_linear_1138_1349" x1="34.3008" y1="57.2816" x2="48.0548" y2="40.5476" gradientUnits="userSpaceOnUse"><stop offset="0.348605" stop-color="#69C04B"></stop><stop offset="1" stop-color="#A2F087"></stop></linearGradient><linearGradient id="paint2_linear_1138_1349" x1="41.6558" y1="21.1992" x2="40.8247" y2="10.7091" gradientUnits="userSpaceOnUse"><stop stop-color="#15421A"></stop><stop offset="1" stop-color="#6AC04C"></stop></linearGradient><linearGradient id="paint3_linear_1138_1349" x1="57.1677" y1="24.925" x2="62.0581" y2="12.1999" gradientUnits="userSpaceOnUse"><stop stop-color="#15421A"></stop><stop offset="1" stop-color="#6AC04C"></stop></linearGradient><linearGradient id="paint4_linear_1138_1349" x1="24.1712" y1="23.9945" x2="19.5266" y2="15.8332" gradientUnits="userSpaceOnUse"><stop stop-color="#15421A"></stop><stop offset="1" stop-color="#6AC04C"></stop></linearGradient><linearGradient id="paint5_linear_1138_1349" x1="66.2463" y1="73.1841" x2="80.6488" y2="54.2046" gradientUnits="userSpaceOnUse"><stop offset="0.348605" stop-color="#69C04B"></stop><stop offset="1" stop-color="#A2F087"></stop></linearGradient><linearGradient id="paint6_linear_1138_1349" x1="72.0518" y1="65.0971" x2="76.8905" y2="61.9987" gradientUnits="userSpaceOnUse"><stop offset="0.348605" stop-color="#69C04B"></stop><stop offset="1" stop-color="#A2F087"></stop></linearGradient></defs></svg> 