<?xml version="1.0" encoding="UTF-8"?> <svg xmlns="http://www.w3.org/2000/svg" width="88" height="88" viewBox="0 0 88 88" fill="none"><path fill-rule="evenodd" clip-rule="evenodd" d="M37.4502 17.5269C21.1683 18.1508 8.08089 31.2382 7.45706 47.5201H24.6628C25.4379 40.8223 30.7524 35.5078 37.4502 34.7327V17.5269ZM7.45705 49.9539H24.5839C24.9408 57.0959 30.4372 62.8841 37.4502 63.6957V79.9474C21.1682 79.3235 8.08076 66.236 7.45705 49.9539ZM39.884 79.9474C56.1662 79.3238 69.2539 66.2362 69.8776 49.9539L53.7047 49.9539C53.3317 57.4169 47.3469 63.4017 39.884 63.7746V79.9474ZM69.8776 47.5201C69.2538 31.238 56.1661 18.1505 39.884 17.5269V34.6538C47.0259 35.0107 52.8142 40.5072 53.6257 47.5201H69.8776ZM38.6673 15.0698C20.0734 15.0698 5.00007 30.1431 5 48.737C5 48.7371 5 48.7371 5 48.7372C5 67.3311 20.0734 82.4045 38.6673 82.4045C57.2613 82.4045 72.3347 67.3311 72.3347 48.7372C72.3347 30.1432 57.2613 15.0698 38.6673 15.0698ZM39.1443 37.0692C32.4367 37.0692 26.9992 42.5067 26.9992 49.2142C26.9992 55.9217 32.4367 61.3593 39.1443 61.3593C45.8518 61.3593 51.2893 55.9217 51.2893 49.2142C51.2893 42.5067 45.8518 37.0692 39.1443 37.0692Z" fill="url(#paint0_linear_1138_1348)"></path><circle cx="39.1441" cy="49.2142" r="24.815" stroke="url(#paint1_linear_1138_1348)" stroke-width="2.43378"></circle><path fill-rule="evenodd" clip-rule="evenodd" d="M75.5064 2.98588C75.4213 2.54615 75.1016 2.18866 74.6741 2.05526C74.2465 1.92186 73.7802 2.0341 73.4602 2.34746L61.8674 13.6993C61.5505 14.0096 61.4275 14.4679 61.5465 14.8952L63.682 22.5638L37.8161 47.8673C37.3357 48.3373 37.3272 49.1077 37.7972 49.5882C38.2672 50.0686 39.0376 50.077 39.5181 49.6071L65.5707 24.1208L72.6763 26.2613C73.1011 26.3893 73.5618 26.276 73.8787 25.9656L85.4715 14.6138C85.7916 14.3004 85.9136 13.8366 85.7892 13.4063C85.6648 12.9761 85.3141 12.6489 84.8762 12.5547L77.0301 10.8657L75.5064 2.98588ZM67.5573 22.1774L72.6898 23.7235L82.1522 14.4578L76.6575 13.275L67.5573 22.1774ZM74.7245 11.7613L73.5464 5.66936L64.084 14.9351L65.6675 20.6214L74.7245 11.7613Z" fill="url(#paint2_linear_1138_1348)"></path><defs><linearGradient id="paint0_linear_1138_1348" x1="15.0639" y1="71.9982" x2="84.8689" y2="-3.90631" gradientUnits="userSpaceOnUse"><stop stop-color="#15421A"></stop><stop offset="1" stop-color="#6AC04C"></stop></linearGradient><linearGradient id="paint1_linear_1138_1348" x1="26.7152" y1="71.2632" x2="56.6867" y2="34.7979" gradientUnits="userSpaceOnUse"><stop offset="0.348605" stop-color="#69C04B"></stop><stop offset="1" stop-color="#A2F087"></stop></linearGradient><linearGradient id="paint2_linear_1138_1348" x1="49.5261" y1="47.2814" x2="78.4339" y2="11.7927" gradientUnits="userSpaceOnUse"><stop offset="0.348605" stop-color="#69C04B"></stop><stop offset="1" stop-color="#A2F087"></stop></linearGradient></defs></svg> 