<?xml version="1.0" encoding="UTF-8"?> <svg xmlns="http://www.w3.org/2000/svg" width="88" height="88" viewBox="0 0 88 88" fill="none"><path d="M7.51318 76H76.4864" stroke="url(#paint0_linear_1138_1362)" stroke-width="2.43" stroke-linecap="round"></path><path fill-rule="evenodd" clip-rule="evenodd" d="M46.7453 7.67917C46.076 7.63136 45.4947 8.13519 45.4469 8.80451C45.3991 9.47383 45.9029 10.0552 46.5722 10.103L55.2001 10.7193L12.562 32.0383C11.9619 32.3384 11.7186 33.0682 12.0187 33.6684C12.3188 34.2686 13.0486 34.5118 13.6488 34.2117L56.8555 12.6084L53.1973 19.5067C52.8829 20.0995 53.1086 20.8349 53.7015 21.1493C54.2943 21.4637 55.0297 21.238 55.3441 20.6451L60.7812 10.3924C60.9737 10.0294 60.9697 9.59371 60.7705 9.23431C60.5714 8.87492 60.2042 8.64051 59.7943 8.61124L46.7453 7.67917Z" fill="url(#paint1_linear_1138_1362)"></path><rect x="11.2397" y="48.0381" width="14.9131" height="20.5055" stroke="url(#paint2_linear_1138_1362)" stroke-width="2.43" stroke-linejoin="round"></rect><rect x="35.4741" y="36.853" width="14.9131" height="31.6904" stroke="url(#paint3_linear_1138_1362)" stroke-width="2.43" stroke-linejoin="round"></rect><rect x="59.7095" y="23.8042" width="14.9131" height="44.7394" stroke="url(#paint4_linear_1138_1362)" stroke-width="2.43" stroke-linejoin="round"></rect><defs><linearGradient id="paint0_linear_1138_1362" x1="8.06942" y1="76.6758" x2="77.0383" y2="75.4383" gradientUnits="userSpaceOnUse"><stop stop-color="#15421A"></stop><stop offset="1" stop-color="#6AC04C"></stop></linearGradient><linearGradient id="paint1_linear_1138_1362" x1="24.1272" y1="32.8542" x2="36.3562" y2="5.49393" gradientUnits="userSpaceOnUse"><stop offset="0.348605" stop-color="#69C04B"></stop><stop offset="1" stop-color="#A2F087"></stop></linearGradient><linearGradient id="paint2_linear_1138_1362" x1="13.4687" y1="65.3746" x2="34.2269" y2="48.9586" gradientUnits="userSpaceOnUse"><stop stop-color="#15421A"></stop><stop offset="1" stop-color="#6AC04C"></stop></linearGradient><linearGradient id="paint3_linear_1138_1362" x1="37.703" y1="63.6458" x2="64.442" y2="49.9633" gradientUnits="userSpaceOnUse"><stop stop-color="#15421A"></stop><stop offset="1" stop-color="#6AC04C"></stop></linearGradient><linearGradient id="paint4_linear_1138_1362" x1="63.4313" y1="66.0501" x2="82.6136" y2="58.2706" gradientUnits="userSpaceOnUse"><stop offset="0.348605" stop-color="#69C04B"></stop><stop offset="1" stop-color="#A2F087"></stop></linearGradient></defs></svg> 